HIERARCHY
ROOT hip
{
  OFFSET 0 90.174 2.4664
  CHANNELS 6 Xposition Yposition Zposition Zrotation Xrotation Yrotation
  JOINT abdomen
  {
    OFFSET 0 -1.186 -1.5018
    CHANNELS 6 Xposition Yposition Zposition Zrotation Xrotation Yrotation
    JOINT abdomen2
    {
      OFFSET 0 9.964 0.2134
      CHANNELS 6 Xposition Yposition Zposition Zrotation Xrotation Yrotation
      JOINT chest
      {
        OFFSET 0 13.134 -3.2573
        CHANNELS 6 Xposition Yposition Zposition Zrotation Xrotation Yrotation
        JOINT neck
        {
          OFFSET 0 20.686 -1.6905
          CHANNELS 6 Xposition Yposition Zposition Zrotation Xrotation Yrotation
          JOINT head
          {
            OFFSET 0 7.238 -0.1237
            CHANNELS 6 Xposition Yposition Zposition Zrotation Xrotation Yrotation
            End Site
            {
              OFFSET 0 0 0
            }
          }
        }
        JOINT lCollar
        {
          OFFSET 1.7069 20.075 5.0056
          CHANNELS 6 Xposition Yposition Zposition Zrotation Xrotation Yrotation
          JOINT lShldr
          {
            OFFSET 13.6458 -0.047 -4.849
            CHANNELS 6 Xposition Yposition Zposition Zrotation Xrotation Yrotation
            JOINT lForeArm
            {
              OFFSET 28.3255 -0.9759 2.2888
              CHANNELS 6 Xposition Yposition Zposition Zrotation Xrotation Yrotation
              JOINT lHand
              {
                OFFSET 22.1583 -0.53 10.8316
                CHANNELS 6 Xposition Yposition Zposition Zrotation Xrotation Yrotation
                JOINT lThumb1
                {
                  OFFSET 0.786 0.112 2.5817
                  CHANNELS 6 Xposition Yposition Zposition Zrotation Xrotation Yrotation
                  JOINT lThumb2
                  {
                    OFFSET 0.3601 -0.878 4.2331
                    CHANNELS 6 Xposition Yposition Zposition Zrotation Xrotation Yrotation
                    JOINT lThumb2_End
                    {
                      OFFSET 1.8127 -1.216 2.2227
                      CHANNELS 6 Xposition Yposition Zposition Zrotation Xrotation Yrotation
                      End Site
                      {
                        OFFSET 0.0181 -0.0122 0.0222
                      }
                    }
                  }
                }
                JOINT lCarpal1
                {
                  OFFSET 0.9571 1.114 1.7695
                  CHANNELS 6 Xposition Yposition Zposition Zrotation Xrotation Yrotation
                  JOINT lIndex1
                  {
                    OFFSET 4.1246 0.487 4.1451
                    CHANNELS 6 Xposition Yposition Zposition Zrotation Xrotation Yrotation
                    JOINT lIndex2
                    {
                      OFFSET 3.4052 -1.454 2.7682
                      CHANNELS 6 Xposition Yposition Zposition Zrotation Xrotation Yrotation
                      JOINT lIndex2_End
                      {
                        OFFSET 1.4531 -1.795 1.2713
                        CHANNELS 6 Xposition Yposition Zposition Zrotation Xrotation Yrotation
                        End Site
                        {
                          OFFSET 0.0145 -0.0179 0.0127
                        }
                      }
                    }
                  }
                  JOINT lMid1
                  {
                    OFFSET 5.6954 0.21 2.1184
                    CHANNELS 6 Xposition Yposition Zposition Zrotation Xrotation Yrotation
                    JOINT lMid2
                    {
                      OFFSET 3.9766 -1.54 2.3863
                      CHANNELS 6 Xposition Yposition Zposition Zrotation Xrotation Yrotation
                      JOINT lMid2_End
                      {
                        OFFSET 1.4042 -1.926 1.125
                        CHANNELS 6 Xposition Yposition Zposition Zrotation Xrotation Yrotation
                        End Site
                        {
                          OFFSET 0.014 -0.0193 0.0113
                        }
                      }
                    }
                  }
                }
                JOINT lCarpal2
                {
                  OFFSET 2.0956 0.66 -0.3894
                  CHANNELS 6 Xposition Yposition Zposition Zrotation Xrotation Yrotation
                  JOINT lRing1
                  {
                    OFFSET 5.0395 -0.09 2.4971
                    CHANNELS 6 Xposition Yposition Zposition Zrotation Xrotation Yrotation
                    JOINT lRing2
                    {
                      OFFSET 3.7921 -1.552 1.4806
                      CHANNELS 6 Xposition Yposition Zposition Zrotation Xrotation Yrotation
                      JOINT lRing2_End
                      {
                        OFFSET 1.4655 -1.808 0.9609
                        CHANNELS 6 Xposition Yposition Zposition Zrotation Xrotation Yrotation
                        End Site
                        {
                          OFFSET 0.0147 -0.0181 0.0096
                        }
                      }
                    }
                  }
                  JOINT lPinky1
                  {
                    OFFSET 4.9141 -1.269 0.3591
                    CHANNELS 6 Xposition Yposition Zposition Zrotation Xrotation Yrotation
                    JOINT lPinky2
                    {
                      OFFSET 3.1477 -1.685 0.8462
                      CHANNELS 6 Xposition Yposition Zposition Zrotation Xrotation Yrotation
                      JOINT lPinky2_End
                      {
                        OFFSET 0.8055 -1.585 0.7955
                        CHANNELS 6 Xposition Yposition Zposition Zrotation Xrotation Yrotation
                        End Site
                        {
                          OFFSET 0.0081 -0.0158 0.008
                        }
                      }
                    }
                  }
                }
              }
            }
          }
        }
        JOINT rCollar
        {
          OFFSET -1.7069 20.075 5.0056
          CHANNELS 6 Xposition Yposition Zposition Zrotation Xrotation Yrotation
          JOINT rShldr
          {
            OFFSET -13.6458 -0.047 -4.849
            CHANNELS 6 Xposition Yposition Zposition Zrotation Xrotation Yrotation
            JOINT rForeArm
            {
              OFFSET -28.3255 -0.9759 2.2888
              CHANNELS 6 Xposition Yposition Zposition Zrotation Xrotation Yrotation
              JOINT rHand
              {
                OFFSET -22.1583 -0.53 10.8316
                CHANNELS 6 Xposition Yposition Zposition Zrotation Xrotation Yrotation
                JOINT rThumb1
                {
                  OFFSET -0.786 0.112 2.5817
                  CHANNELS 6 Xposition Yposition Zposition Zrotation Xrotation Yrotation
                  JOINT rThumb2
                  {
                    OFFSET -0.3601 -0.878 4.2331
                    CHANNELS 6 Xposition Yposition Zposition Zrotation Xrotation Yrotation
                    JOINT rThumb2_End
                    {
                      OFFSET -1.8127 -1.216 2.2227
                      CHANNELS 6 Xposition Yposition Zposition Zrotation Xrotation Yrotation
                      End Site
                      {
                        OFFSET -0.0181 -0.0122 0.0222
                      }
                    }
                  }
                }
                JOINT rCarpal1
                {
                  OFFSET -0.9571 1.114 1.7695
                  CHANNELS 6 Xposition Yposition Zposition Zrotation Xrotation Yrotation
                  JOINT rIndex1
                  {
                    OFFSET -4.1246 0.487 4.1451
                    CHANNELS 6 Xposition Yposition Zposition Zrotation Xrotation Yrotation
                    JOINT rIndex2
                    {
                      OFFSET -3.4052 -1.454 2.7682
                      CHANNELS 6 Xposition Yposition Zposition Zrotation Xrotation Yrotation
                      JOINT rIndex2_End
                      {
                        OFFSET -1.4531 -1.795 1.2713
                        CHANNELS 6 Xposition Yposition Zposition Zrotation Xrotation Yrotation
                        End Site
                        {
                          OFFSET -0.0145 -0.018 0.0127
                        }
                      }
                    }
                  }
                  JOINT rMid1
                  {
                    OFFSET -5.6954 0.21 2.1184
                    CHANNELS 6 Xposition Yposition Zposition Zrotation Xrotation Yrotation
                    JOINT rMid2
                    {
                      OFFSET -3.9766 -1.54 2.3863
                      CHANNELS 6 Xposition Yposition Zposition Zrotation Xrotation Yrotation
                      JOINT rMid2_End
                      {
                        OFFSET -1.4042 -1.926 1.125
                        CHANNELS 6 Xposition Yposition Zposition Zrotation Xrotation Yrotation
                        End Site
                        {
                          OFFSET -0.014 -0.0193 0.0113
                        }
                      }
                    }
                  }
                }
                JOINT rCarpal2
                {
                  OFFSET -2.0956 0.66 -0.3894
                  CHANNELS 6 Xposition Yposition Zposition Zrotation Xrotation Yrotation
                  JOINT rRing1
                  {
                    OFFSET -5.0395 -0.09 2.4971
                    CHANNELS 6 Xposition Yposition Zposition Zrotation Xrotation Yrotation
                    JOINT rRing2
                    {
                      OFFSET -3.7921 -1.552 1.4806
                      CHANNELS 6 Xposition Yposition Zposition Zrotation Xrotation Yrotation
                      JOINT rRing2_End
                      {
                        OFFSET -1.4655 -1.808 0.9609
                        CHANNELS 6 Xposition Yposition Zposition Zrotation Xrotation Yrotation
                        End Site
                        {
                          OFFSET -0.0147 -0.0181 0.0096
                        }
                      }
                    }
                  }
                  JOINT rPinky1
                  {
                    OFFSET -4.9141 -1.269 0.3592
                    CHANNELS 6 Xposition Yposition Zposition Zrotation Xrotation Yrotation
                    JOINT rPinky2
                    {
                      OFFSET -3.1477 -1.685 0.8462
                      CHANNELS 6 Xposition Yposition Zposition Zrotation Xrotation Yrotation
                      JOINT rPinky2_End
                      {
                        OFFSET -0.8055 -1.585 0.7955
                        CHANNELS 6 Xposition Yposition Zposition Zrotation Xrotation Yrotation
                        End Site
                        {
                          OFFSET -0.0081 -0.0158 0.008
                        }
                      }
                    }
                  }
                }
              }
            }
          }
        }
      }
    }
  }
  JOINT lThigh
  {
    OFFSET 8.367 -8.2066 0.5982
    CHANNELS 6 Xposition Yposition Zposition Zrotation Xrotation Yrotation
    JOINT lShin
    {
      OFFSET 2.1923 -43.463 -0.4932
      CHANNELS 6 Xposition Yposition Zposition Zrotation Xrotation Yrotation
      JOINT lFoot
      {
        OFFSET 0.7333 -45.8593 -2.6451
        CHANNELS 6 Xposition Yposition Zposition Zrotation Xrotation Yrotation
        End Site
        {
          OFFSET 2.6618 -4.2699 12.3931
        }
      }
    }
  }
  JOINT rThigh
  {
    OFFSET -8.367 -8.2066 0.5982
    CHANNELS 6 Xposition Yposition Zposition Zrotation Xrotation Yrotation
    JOINT rShin
    {
      OFFSET -2.1923 -43.463 -0.4931
      CHANNELS 6 Xposition Yposition Zposition Zrotation Xrotation Yrotation
      JOINT rFoot
      {
        OFFSET -0.7333 -45.8593 -2.6451
        CHANNELS 6 Xposition Yposition Zposition Zrotation Xrotation Yrotation
        End Site
        {
          OFFSET -2.6618 -4.2699 12.3931
        }
      }
    }
  }
}
MOTION
Frames:	4
Frame Time:	0.0333333
0 90.174 2.4664 0 0 -0 0 -1.186 -1.5018 0 0 -0 0 9.964 0.2134 0 0 -0 0 13.134 -3.2573 0 0 -0 0 20.686 -1.6905 0 0 -0 0 7.238 -0.1237 0 0 -0 1.7069 20.075 5.0056 0 0 -0 13.6458 -0.047 -4.849 1.66051 0.0835086 5.75766 28.3255 -0.9759 2.2888 -0.0175111 0.895433 15.7816 22.1583 -0.53 10.8316 7.95139e-016 -1.98785e-016 -0 0.786 0.112 2.5817 5.46658e-016 -3.97569e-016 -0 0.3601 -0.878 4.2331 5.96354e-016 0 -0 1.8127 -1.216 2.2227 3.97569e-016 1.98785e-016 9.54166e-015 0.9571 1.114 1.7695 1.49089e-016 -3.97569e-016 -0 4.1246 0.487 4.1451 6.4605e-016 0 3.18055e-015 3.4052 -1.454 2.7682 5.96354e-016 0 3.18055e-015 1.4531 -1.795 1.2713 8.94531e-016 -1.98785e-016 6.36111e-015 5.6954 0.21 2.1184 6.4605e-016 0 3.18055e-015 3.9766 -1.54 2.3863 5.96354e-016 0 3.18055e-015 1.4042 -1.926 1.125 8.94531e-016 -1.98785e-016 6.36111e-015 2.0956 0.66 -0.3894 1.49089e-016 -3.97569e-016 -0 5.0395 -0.09 2.4971 6.4605e-016 0 3.18055e-015 3.7921 -1.552 1.4806 5.96354e-016 0 3.18055e-015 1.4655 -1.808 0.9609 8.94531e-016 -1.98785e-016 6.36111e-015 4.9141 -1.269 0.3591 6.4605e-016 0 3.18055e-015 3.1477 -1.685 0.8462 5.96354e-016 0 3.18055e-015 0.8055 -1.585 0.7955 8.94531e-016 -1.98785e-016 6.36111e-015 -1.7069 20.075 5.0056 0 0 -0 -13.6458 -0.047 -4.849 -1.4496 0.0636048 -5.0245 -28.3255 -0.9759 2.2888 -1.74811 1.20616 -16.8394 -22.1583 -0.53 10.8316 -1.19271e-015 1.98785e-016 -3.18055e-015 -0.786 0.112 2.5817 -3.97569e-016 1.98785e-016 -3.18055e-015 -0.3601 -0.878 4.2331 -2.98177e-016 1.98785e-016 -3.18055e-015 -1.8127 -1.216 2.2227 -2.98177e-016 3.97569e-016 -0 -0.9571 1.114 1.7695 4.96962e-016 0 -6.36111e-015 -4.1246 0.487 4.1451 -9.93923e-017 3.97569e-016 -0 -3.4052 -1.454 2.7682 -8.94531e-016 5.96354e-016 -0 -1.4531 -1.795 1.2713 -3.97569e-016 3.97569e-016 -0 -5.6954 0.21 2.1184 -9.93923e-017 3.97569e-016 -0 -3.9766 -1.54 2.3863 -8.94531e-016 5.96354e-016 -0 -1.4042 -1.926 1.125 -3.97569e-016 3.97569e-016 -0 -2.0956 0.66 -0.3894 4.96962e-016 0 -6.36111e-015 -5.0395 -0.09 2.4971 -9.93923e-017 3.97569e-016 -0 -3.7921 -1.552 1.4806 -8.94531e-016 5.96354e-016 -0 -1.4655 -1.808 0.9609 -3.97569e-016 3.97569e-016 -0 -4.9141 -1.269 0.3592 -9.93923e-017 3.97569e-016 -0 -3.1477 -1.685 0.8462 -8.94531e-016 5.96354e-016 -0 -0.8055 -1.585 0.7955 -3.97569e-016 3.97569e-016 -0 8.367 -8.2066 0.5982 -4.66115 -1.03232 0.120763 2.1923 -43.463 -0.4932 0.00990601 1.55097 0.177175 0.7333 -45.8593 -2.6451 4.65196 -0.54114 -0.255042 -8.367 -8.2066 0.5982 4.66115 -1.03222 -0.120763 -2.1923 -43.463 -0.4931 -0.00990459 1.5509 -0.177176 -0.7333 -45.8593 -2.6451 -4.65196 -0.541171 0.255041 
-0.651169 73.144 -0.206271 -0 -1.00193 -0 0 -1.186 -1.5018 -0.625488 -1.37149 -0.247489 -2.22045e-016 9.964 0.2134 -1.25744 -2.74019 -0.510165 -4.44089e-016 13.134 -3.2573 -1.25744 -2.74018 -0.510164 0 20.686 -1.6905 4.21475e-008 -0.281373 -1.15122e-005 -8.88178e-016 7.238 -0.1237 1.2655e-006 -0.575267 2.73935e-007 1.7069 20.075 5.0056 11.638 1.37948 -1.76304 13.6458 -0.047 -4.849 -55.257 0.0855577 -6.8727 28.3255 -0.9759 2.2888 -17.2601 34.7727 -63.3069 22.1583 -0.53 10.8316 -16.0719 -7.22316 22.1083 0.786 0.112 2.5817 3.18055e-015 9.54166e-015 3.18055e-015 0.3601 -0.878 4.2331 -4.35845e-007 5.08224e-007 5.21594e-007 1.8127 -1.216 2.2227 -0 0 3.18055e-015 0.9571 1.114 1.7695 3.18055e-015 9.54166e-015 1.59028e-015 4.1246 0.487 4.1451 6.36111e-015 -3.18055e-015 1.59028e-015 3.4052 -1.454 2.7682 -4.35845e-007 5.08224e-007 5.21594e-007 1.4531 -1.795 1.2713 0 0 -0 5.6954 0.21 2.1184 6.36111e-015 -3.18055e-015 1.59028e-015 3.9766 -1.54 2.3863 -4.35845e-007 5.08224e-007 5.21594e-007 1.4042 -1.926 1.125 0 0 -0 2.0956 0.66 -0.3894 3.18055e-015 9.54166e-015 1.59028e-015 5.0395 -0.09 2.4971 6.36111e-015 -3.18055e-015 1.59028e-015 3.7921 -1.552 1.4806 -4.35845e-007 5.08224e-007 5.21594e-007 1.4655 -1.808 0.9609 0 0 -0 4.9141 -1.269 0.3591 6.36111e-015 -3.18055e-015 1.59028e-015 3.1477 -1.685 0.8462 -4.35845e-007 5.08224e-007 5.21594e-007 0.8055 -1.585 0.7955 0 0 -0 -1.7069 20.075 5.0056 -12.6793 0.92876 0.682011 -13.6458 -0.047 -4.849 55.3336 0.00932287 8.5667 -28.3255 -0.9759 2.2888 16.6502 31.9556 60.0167 -22.1583 -0.53 10.8316 20.0462 -4.79988 -19.7227 -0.786 0.112 2.5817 0 6.36111e-015 -0 -0.3601 -0.878 4.2331 -2.64834e-031 3.18055e-015 4.77083e-015 -1.8127 -1.216 2.2227 -3.18055e-015 9.54166e-015 7.95139e-015 -0.9571 1.114 1.7695 3.18055e-015 3.18055e-015 -4.77083e-015 -4.1246 0.487 4.1451 -0 0 1.59028e-015 -3.4052 -1.454 2.7682 -5.29669e-031 9.54166e-015 3.18055e-015 -1.4531 -1.795 1.2713 3.18055e-015 3.18055e-015 4.77083e-015 -5.6954 0.21 2.1184 -0 0 1.59028e-015 -3.9766 -1.54 2.3863 -5.29669e-031 9.54166e-015 3.18055e-015 -1.4042 -1.926 1.125 3.18055e-015 3.18055e-015 4.77083e-015 -2.0956 0.66 -0.3894 3.18055e-015 3.18055e-015 -4.77083e-015 -5.0395 -0.09 2.4971 -0 0 1.59028e-015 -3.7921 -1.552 1.4806 -5.29669e-031 9.54166e-015 3.18055e-015 -1.4655 -1.808 0.9609 3.18055e-015 3.18055e-015 4.77083e-015 -4.9141 -1.269 0.3592 -0 0 1.59028e-015 -3.1477 -1.685 0.8462 -5.29669e-031 9.54166e-015 3.18055e-015 -0.8055 -1.585 0.7955 3.18055e-015 3.18055e-015 4.77083e-015 8.367 -8.2066 0.5982 128.334 -16.588 179.624 2.1923 -43.463 -0.4932 146.149 22.2285 -102.934 0.7333 -45.8593 -2.6451 1.82215 -0.808812 -37.17 -8.367 -8.2066 0.5982 -128.316 -16.5721 -179.604 -2.1923 -43.463 -0.4931 -146.108 22.2258 102.899 -0.7333 -45.8593 -2.6451 -1.81067 -0.80347 37.1872 
-0.651242 73.4315 -0.13695 -0 -1.77807 -0 0 -1.186 -1.5018 -0.628811 -0.934265 -0.243207 0 9.964 0.2134 -1.26183 -1.86578 -0.496755 0 13.134 -3.2573 -1.26183 -1.86578 -0.496754 0 20.686 -1.6905 7.60599e-005 -0.559516 1.78257e-005 0 7.238 -0.1237 3.7026e-007 -1.13857 -1.59551e-007 1.7069 20.075 5.0056 11.551 0.376599 -2.20808 13.6458 -0.047 -4.849 -54.8695 -0.0854912 -7.05686 28.3255 -0.9759 2.2888 -17.2055 34.4167 -62.8521 22.1583 -0.53 10.8316 -15.9083 -7.35316 21.5762 0.786 0.112 2.5817 -4.35795e-007 5.08795e-007 5.21013e-007 0.3601 -0.878 4.2331 -0 0 3.18055e-015 1.8127 -1.216 2.2227 -8.82781e-032 -3.18055e-015 -1.59028e-015 0.9571 1.114 1.7695 1.41245e-030 -1.27222e-014 6.36111e-015 4.1246 0.487 4.1451 -4.35795e-007 5.08795e-007 5.21013e-007 3.4052 -1.454 2.7682 -3.18055e-015 -6.36111e-015 -1.59028e-015 1.4531 -1.795 1.2713 -3.18055e-015 -1.27222e-014 -3.18055e-015 5.6954 0.21 2.1184 -4.35795e-007 5.08795e-007 5.21013e-007 3.9766 -1.54 2.3863 -3.18055e-015 -6.36111e-015 -1.59028e-015 1.4042 -1.926 1.125 -3.18055e-015 -1.27222e-014 -3.18055e-015 2.0956 0.66 -0.3894 1.41245e-030 -1.27222e-014 6.36111e-015 5.0395 -0.09 2.4971 -4.35795e-007 5.08795e-007 5.21013e-007 3.7921 -1.552 1.4806 -3.18055e-015 -6.36111e-015 -1.59028e-015 1.4655 -1.808 0.9609 -3.18055e-015 -1.27222e-014 -3.18055e-015 4.9141 -1.269 0.3591 -4.35795e-007 5.08795e-007 5.21013e-007 3.1477 -1.685 0.8462 -3.18055e-015 -6.36111e-015 -1.59028e-015 0.8055 -1.585 0.7955 -3.18055e-015 -1.27222e-014 -3.18055e-015 -1.7069 20.075 5.0056 -12.5673 -0.0424513 1.17843 -13.6458 -0.047 -4.849 54.9135 -0.173695 8.6987 -28.3255 -0.9759 2.2888 16.5686 31.6258 59.6452 -22.1583 -0.53 10.8316 19.756 -5.01327 -19.2235 -0.786 0.112 2.5817 3.18055e-015 -3.18055e-015 6.36111e-015 -0.3601 -0.878 4.2331 9.54166e-015 0 1.59028e-015 -1.8127 -1.216 2.2227 3.18055e-015 -3.18055e-015 -1.59028e-015 -0.9571 1.114 1.7695 3.18055e-015 -3.18055e-015 4.77083e-015 -4.1246 0.487 4.1451 9.54166e-015 0 1.59028e-015 -3.4052 -1.454 2.7682 3.18055e-015 -3.18055e-015 -1.59028e-015 -1.4531 -1.795 1.2713 -3.18055e-015 -3.18055e-015 3.18055e-015 -5.6954 0.21 2.1184 9.54166e-015 0 1.59028e-015 -3.9766 -1.54 2.3863 3.18055e-015 -3.18055e-015 -1.59028e-015 -1.4042 -1.926 1.125 -3.18055e-015 -3.18055e-015 3.18055e-015 -2.0956 0.66 -0.3894 3.18055e-015 -3.18055e-015 4.77083e-015 -5.0395 -0.09 2.4971 9.54166e-015 0 1.59028e-015 -3.7921 -1.552 1.4806 3.18055e-015 -3.18055e-015 -1.59028e-015 -1.4655 -1.808 0.9609 -3.18055e-015 -3.18055e-015 3.18055e-015 -4.9141 -1.269 0.3592 9.54166e-015 0 1.59028e-015 -3.1477 -1.685 0.8462 3.18055e-015 -3.18055e-015 -1.59028e-015 -0.8055 -1.585 0.7955 -3.18055e-015 -3.18055e-015 3.18055e-015 8.367 -8.2066 0.5982 127.194 -16.4214 178.478 2.1923 -43.463 -0.4932 146.155 22.2315 -103.03 0.7333 -45.8593 -2.6451 2.3071 -1.33296 -37.8322 -8.367 -8.2066 0.5982 -127.177 -16.4052 -178.461 -2.1923 -43.463 -0.4931 -146.115 22.2288 102.994 -0.7333 -45.8593 -2.6451 -2.29591 -1.32768 37.8474 
-0.651315 73.7174 -0.067563 -0 -2.55479 -0 0 -1.186 -1.5018 -0.631899 -0.490707 -0.23873 0 9.964 0.2134 -1.26591 -0.978747 -0.482885 4.44089e-016 13.134 -3.2573 -1.26591 -0.978746 -0.482885 1.77636e-015 20.686 -1.6905 2.12009e-005 -0.838101 -1.85535e-005 -8.88178e-016 7.238 -0.1237 -5.7893e-008 -1.70279 -5.96657e-007 1.7069 20.075 5.0056 11.4559 -0.627323 -2.65533 13.6458 -0.047 -4.849 -54.4825 -0.257828 -7.2399 28.3255 -0.9759 2.2888 -17.1476 34.061 -62.3986 22.1583 -0.53 10.8316 -15.7459 -7.48471 21.0442 0.786 0.112 2.5817 -4.35685e-007 5.09273e-007 5.20561e-007 0.3601 -0.878 4.2331 4.35685e-007 -5.09273e-007 -5.20561e-007 1.8127 -1.216 2.2227 -4.35685e-007 5.09273e-007 5.20561e-007 0.9571 1.114 1.7695 3.18055e-015 -3.18055e-015 -3.18055e-015 4.1246 0.487 4.1451 -4.35685e-007 5.09273e-007 5.20561e-007 3.4052 -1.454 2.7682 4.35685e-007 -5.09273e-007 -5.20561e-007 1.4531 -1.795 1.2713 -4.35685e-007 5.09273e-007 5.20561e-007 5.6954 0.21 2.1184 -4.35685e-007 5.09273e-007 5.20561e-007 3.9766 -1.54 2.3863 4.35685e-007 -5.09273e-007 -5.20561e-007 1.4042 -1.926 1.125 -4.35685e-007 5.09273e-007 5.20561e-007 2.0956 0.66 -0.3894 3.18055e-015 -3.18055e-015 -3.18055e-015 5.0395 -0.09 2.4971 -4.35685e-007 5.09273e-007 5.20561e-007 3.7921 -1.552 1.4806 4.35685e-007 -5.09273e-007 -5.20561e-007 1.4655 -1.808 0.9609 -4.35685e-007 5.09273e-007 5.20561e-007 4.9141 -1.269 0.3591 -4.35685e-007 5.09273e-007 5.20561e-007 3.1477 -1.685 0.8462 4.35685e-007 -5.09273e-007 -5.20561e-007 0.8055 -1.585 0.7955 -4.35685e-007 5.09273e-007 5.20561e-007 -1.7069 20.075 5.0056 -12.4468 -1.01431 1.67745 -13.6458 -0.047 -4.849 54.4937 -0.35772 8.82939 -28.3255 -0.9759 2.2888 16.4849 31.2964 59.2743 -22.1583 -0.53 10.8316 19.4675 -5.22927 -18.7249 -0.786 0.112 2.5817 -3.18055e-015 -3.18055e-015 1.59028e-015 -0.3601 -0.878 4.2331 8.462e-007 1.10407e-006 -9.65985e-007 -1.8127 -1.216 2.2227 1.27222e-014 -3.18055e-015 3.18055e-015 -0.9571 1.114 1.7695 -6.36111e-015 -3.18055e-015 -1.59028e-015 -4.1246 0.487 4.1451 1.05934e-030 -1.90833e-014 3.18055e-015 -3.4052 -1.454 2.7682 8.462e-007 1.10407e-006 -9.65985e-007 -1.4531 -1.795 1.2713 6.36111e-015 -1.27222e-014 -1.59028e-015 -5.6954 0.21 2.1184 1.05934e-030 -1.90833e-014 3.18055e-015 -3.9766 -1.54 2.3863 8.462e-007 1.10407e-006 -9.65985e-007 -1.4042 -1.926 1.125 6.36111e-015 -1.27222e-014 -1.59028e-015 -2.0956 0.66 -0.3894 -6.36111e-015 -3.18055e-015 -1.59028e-015 -5.0395 -0.09 2.4971 1.05934e-030 -1.90833e-014 3.18055e-015 -3.7921 -1.552 1.4806 8.462e-007 1.10407e-006 -9.65985e-007 -1.4655 -1.808 0.9609 6.36111e-015 -1.27222e-014 -1.59028e-015 -4.9141 -1.269 0.3592 1.05934e-030 -1.90833e-014 3.18055e-015 -3.1477 -1.685 0.8462 8.462e-007 1.10407e-006 -9.65985e-007 -0.8055 -1.585 0.7955 6.36111e-015 -1.27222e-014 -1.59028e-015 8.367 -8.2066 0.5982 126.062 -16.2299 177.332 2.1923 -43.463 -0.4932 146.16 22.2354 -103.127 0.7333 -45.8593 -2.6451 2.78636 -1.85595 -38.4921 -8.367 -8.2066 0.5982 -126.046 -16.2135 -177.317 -2.1923 -43.463 -0.4931 -146.12 22.2327 103.091 -0.7333 -45.8593 -2.6451 -2.77546 -1.85068 38.5054 
